<?xml version="1.0" encoding="UTF-8"?>
<svg width="392px" height="154px" viewBox="0 0 392 154" version="1.1" xmlns="http://www.w3.org/2000/svg" xmlns:xlink="http://www.w3.org/1999/xlink">
    <!-- Generator: Sketch 54.1 (76490) - https://sketchapp.com -->
    <title>编组 2</title>
    <desc>Created with Sketch.</desc>
    <g id="页面1" stroke="none" stroke-width="1" fill="none" fill-rule="evenodd">
        <g id="画板复制-2" transform="translate(-26.000000, -20.000000)" fill="#3A4042">
            <g id="编组-2" transform="translate(26.000000, 20.000000)">
                <g id="横版1-正">
                    <g id="编组">
                        <polygon id="矩形" fill-opacity="0.597465035" transform="translate(37.500000, 120.000000) scale(-1, 1) translate(-37.500000, -120.000000) " points="0.0406857734 129.007197 75 86 75 111.004184 0 154"></polygon>
                        <polygon id="矩形复制-3" fill-opacity="0.597465035" transform="translate(37.500000, 77.000000) scale(-1, 1) translate(-37.500000, -77.000000) " points="0.0406857734 86.007197 75 43 75 68.0041843 0 111"></polygon>
                        <polygon id="矩形复制" points="75.0406858 129.007197 150 86 150 111.004184 75 154"></polygon>
                        <polygon id="矩形复制-2" fill-opacity="0.6" transform="translate(112.500000, 77.000000) scale(-1, 1) translate(-112.500000, -77.000000) " points="75.0406858 86.007197 150 43 150 68.0041843 75 111"></polygon>
                        <polygon id="矩形复制-4" points="75.0406858 86.007197 150 43 150 68.0041843 75 111"></polygon>
                        <polygon id="矩形复制-5" fill-opacity="0.6" transform="translate(112.500000, 34.000000) scale(-1, 1) translate(-112.500000, -34.000000) " points="75.0406858 43.007197 150 0 150 25.0041843 75 68"></polygon>
                        <polygon id="矩形" points="0.0406857734 86.007197 75 43 75 68.0041843 0 111"></polygon>
                        <polygon id="矩形复制-6" points="0.0406857734 43.007197 75 0 75 25.0041843 0 68"></polygon>
                    </g>
                </g>
                <g id="编组-4" transform="translate(174.000000, 26.000000)" fill-rule="nonzero">
                    <g id="编组-3" transform="translate(0.000000, 65.000000)">
                        <path d="M11.8196203,22.5432277 L-1.42108547e-14,3 L7.26265823,3 L18.085443,22.4481268 L18.085443,36 L11.8196203,36 L11.8196203,22.5432277 Z M17.2381157,15.923552 C17.0877803,15.2626026 17.0877803,14.3819054 17.2381157,13.2814601 L23.0221519,3 L30,3 L19.3478204,20.1498559 C18.3365582,19.0698489 17.6333233,17.661081 17.2381157,15.923552 Z" id="形状结合"></path>
                        <polygon id="路径" points="87 30.2463977 104.238427 8.70605187 104.190807 8.42074928 87.9523993 8.42074928 87.9523993 3 110.809501 3 110.809501 8.51585014 93.3805941 30.2463977 93.3805941 30.5317003 112 30.5317003 112 36 87 36"></polygon>
                        <polygon id="路径" points="140 8.46829971 130.5 8.46829971 130.5 36 125.5 36 125.5 8.46829971 116 8.46829971 116 3 140 3"></polygon>
                        <path d="M182.312047,36 C180.362237,36 178.62473,35.7910735 177.099475,35.3732143 C175.574221,34.9553551 174.284849,34.232148 173.231323,33.2035714 C172.177796,32.1749949 171.37587,30.7928658 170.82552,29.0571429 C170.275171,27.3214199 170,25.1357275 170,22.5 C170,19.8642725 170.275171,17.6785801 170.82552,15.9428571 C171.37587,14.2071342 172.177796,12.8250051 173.231323,11.7964286 C174.284849,10.767852 175.574221,10.0446449 177.099475,9.62678571 C178.62473,9.20892648 180.362237,9 182.312047,9 C183.632886,9 184.867224,9.08035634 186.015096,9.24107143 C187.162968,9.40178652 188.129997,9.610713 188.91621,9.86785714 L188.91621,15.0267857 C188.004202,14.6732125 187.06076,14.4160722 186.085855,14.2553571 C185.11095,14.0946421 184.057439,14.0142857 182.925291,14.0142857 C181.698797,14.0142857 180.653149,14.1508915 179.788313,14.4241071 C178.923478,14.6973228 178.215896,15.1553539 177.665547,15.7982143 C177.115197,16.4410746 176.714234,17.3089231 176.462645,18.4017857 C176.211057,19.4946483 176.085265,20.8767774 176.085265,22.5482143 C176.085265,24.1875082 176.211057,25.5455303 176.462645,26.6223214 C176.714234,27.6991125 177.115197,28.5589254 177.665547,29.2017857 C178.215896,29.8446461 178.93134,30.2946416 179.8119,30.5517857 C180.692459,30.8089299 181.761694,30.9375 183.019636,30.9375 C186.015096,30.9375 187.223216,30.6718221 188.18669,30.4384686 C188.524314,30.356696 188.750697,30.2364018 189.078202,30.1627462 C189.078202,30.1627462 189.718802,31.6724138 191,34.6917491 C190.622617,34.8203212 190.174482,34.9408557 189.655581,35.0533562 C189.13668,35.1658568 187.633282,35.5402641 186.462105,35.7190839 C185.820826,35.8169969 184.261857,36 182.312047,36 Z" id="路径"></path>
                        <path d="M209.284211,9.94736842 C210.930535,9.94736842 212.310521,10.1368402 213.424211,10.5157895 C214.5379,10.8947387 215.433681,11.4473648 216.111579,12.1736842 C216.789477,12.9000036 217.273683,13.7921 217.564211,14.85 C217.854738,15.9079 218,17.1157827 218,18.4736842 L218,36 L211.947368,36 L211.947368,20.1315789 C211.947368,18.3315699 211.648775,17.0052674 211.051579,16.1526316 C210.454383,15.2999957 209.251939,14.8736842 207.444211,14.8736842 C205.92701,14.8736842 204.603514,15.1657866 203.473684,15.75 C203.116289,15.9348023 202.791196,16.1725309 202.498404,16.463187 C202.410489,12.1081375 204.087721,10.9357526 204.369474,10.8236842 C205.838253,10.2394708 207.476482,9.94736842 209.284211,9.94736842 Z M201.052632,36 L195,36 L195,-5.32907052e-14 L201.052632,-5.32907052e-14 L201.052632,36 Z" id="形状结合"></path>
                        <path d="M38.3106227,21.1407806 C38.8135717,20.5500921 39.5934106,20.2025149 40.0031381,20.1716581 L47.4989691,19.6071429 C47.4989691,18.8035674 47.4436432,18.0401822 47.3329897,17.3169643 C47.2223362,16.5937464 46.9773215,15.9589313 46.5979381,15.4125 C46.2185548,14.8660687 45.6890068,14.4321445 45.0092784,14.1107143 C44.3295499,13.7892841 43.4206242,13.6285714 42.2824742,13.6285714 C41.0810936,13.6285714 40.0852273,13.7732128 39.2948454,14.0625 C38.5044634,14.3517872 37.8721673,14.7857114 37.3979381,15.3642857 C36.923709,15.94286 36.5759461,16.6580315 36.3546392,17.5098214 C36.1333322,18.3616114 36.006873,19.3499944 35.9752577,20.475 C35.8982329,22.5185233 35.8985966,23.9608733 35.9763487,24.80205 C36.0451059,26.9694411 36.6454236,28.5645753 37.7773196,29.5875 C38.9154696,30.6160766 40.7649356,31.1303571 43.3257732,31.1303571 C44.0845399,31.1303571 44.8670063,31.0821433 45.6731959,30.9857143 C46.4793855,30.8892852 47.2539482,30.7526795 47.9969072,30.5758929 C48.7398663,30.3991063 49.4274882,30.206251 50.0597938,29.9973214 C50.3773533,30.81964 50.9148103,32.2419614 51.6721649,34.2642857 C50.9133983,34.714288 49.6804209,35.1160697 47.9731959,35.4696429 C46.2659708,35.8232161 44.3690826,36 42.2824742,36 C40.322327,36 38.5835127,35.7910735 37.0659794,35.3732143 C35.548446,34.9553551 34.2680465,34.232148 33.2247423,33.2035714 C32.1814381,32.1749949 31.3831643,30.7928658 30.8298969,29.0571429 C30.2766295,27.3214199 30,25.1357275 30,22.5 C30,19.8642725 30.2766295,17.6785801 30.8298969,15.9428571 C31.3831643,14.2071342 32.1814381,12.8250051 33.2247423,11.7964286 C34.2680465,10.767852 35.548446,10.0446449 37.0659794,9.62678571 C38.5835127,9.20892648 40.322327,9 42.2824742,9 C44.4955437,9 46.2975875,9.29731846 47.6886598,9.89196429 C49.079732,10.4866101 50.1704428,11.2982091 50.9608247,12.3267857 C51.7512067,13.3553623 52.2886584,14.5446361 52.5731959,15.8946429 C52.8577334,17.2446496 53,18.6910637 53,20.2339286 C53,20.8767889 52.9762889,21.4955327 52.928866,22.0901786 C52.8814431,22.6848244 52.8261172,23.2071406 52.7628866,23.6571429 L36.8292387,24.7096606 C37.1001007,23.2568446 37.6653608,21.8986085 38.3106227,21.1407806 Z" id="路径"></path>
                        <path d="M66.3106227,21.1407806 C66.8135717,20.5500921 67.5934106,20.2025149 68.0031381,20.1716581 L75.4989691,19.6071429 C75.4989691,18.8035674 75.4436432,18.0401822 75.3329897,17.3169643 C75.2223362,16.5937464 74.9773215,15.9589313 74.5979381,15.4125 C74.2185548,14.8660687 73.6890068,14.4321445 73.0092784,14.1107143 C72.3295499,13.7892841 71.4206242,13.6285714 70.2824742,13.6285714 C69.0810936,13.6285714 68.0852273,13.7732128 67.2948454,14.0625 C66.5044634,14.3517872 65.8721673,14.7857114 65.3979381,15.3642857 C64.923709,15.94286 64.5759461,16.6580315 64.3546392,17.5098214 C64.1333322,18.3616114 64.006873,19.3499944 63.9752577,20.475 C63.8982329,22.5185233 63.8985966,23.9608733 63.9763487,24.80205 C64.0451059,26.9694411 64.6454236,28.5645753 65.7773196,29.5875 C66.9154696,30.6160766 68.7649356,31.1303571 71.3257732,31.1303571 C72.0845399,31.1303571 72.8670063,31.0821433 73.6731959,30.9857143 C74.4793855,30.8892852 75.2539482,30.7526795 75.9969072,30.5758929 C76.7398663,30.3991063 77.4274882,30.206251 78.0597938,29.9973214 C78.5083109,31.1698496 79.045768,32.592171 79.6721649,34.2642857 C78.9133983,34.714288 77.6804209,35.1160697 75.9731959,35.4696429 C74.2659708,35.8232161 72.3690826,36 70.2824742,36 C68.322327,36 66.5835127,35.7910735 65.0659794,35.3732143 C63.548446,34.9553551 62.2680465,34.232148 61.2247423,33.2035714 C60.1814381,32.1749949 59.3831643,30.7928658 58.8298969,29.0571429 C58.2766295,27.3214199 58,25.1357275 58,22.5 C58,19.8642725 58.2766295,17.6785801 58.8298969,15.9428571 C59.3831643,14.2071342 60.1814381,12.8250051 61.2247423,11.7964286 C62.2680465,10.767852 63.548446,10.0446449 65.0659794,9.62678571 C66.5835127,9.20892648 68.322327,9 70.2824742,9 C72.4955437,9 74.2975875,9.29731846 75.6886598,9.89196429 C77.079732,10.4866101 78.1704428,11.2982091 78.9608247,12.3267857 C79.7512067,13.3553623 80.2886584,14.5446361 80.5731959,15.8946429 C80.8577334,17.2446496 81,18.6910637 81,20.2339286 C81,20.8767889 80.9762889,21.4955327 80.928866,22.0901786 C80.8814431,22.6848244 80.8261172,23.2071406 80.7628866,23.6571429 L64.8292387,24.7096606 C65.1001007,23.2568446 65.6653608,21.8986085 66.3106227,21.1407806 Z" id="路径复制-2"></path>
                        <path d="M150.310623,21.1407806 C150.813572,20.5500921 151.593411,20.2025149 152.003138,20.1716581 L159.498969,19.6071429 C159.498969,18.8035674 159.443643,18.0401822 159.33299,17.3169643 C159.222336,16.5937464 158.977321,15.9589313 158.597938,15.4125 C158.218555,14.8660687 157.689007,14.4321445 157.009278,14.1107143 C156.32955,13.7892841 155.420624,13.6285714 154.282474,13.6285714 C153.081094,13.6285714 152.085227,13.7732128 151.294845,14.0625 C150.504463,14.3517872 149.872167,14.7857114 149.397938,15.3642857 C148.923709,15.94286 148.575946,16.6580315 148.354639,17.5098214 C148.133332,18.3616114 148.006873,19.3499944 147.975258,20.475 C147.898233,22.5185233 147.898597,23.9608733 147.976349,24.80205 C148.045106,26.9694411 148.645424,28.5645753 149.77732,29.5875 C150.91547,30.6160766 152.764936,31.1303571 155.325773,31.1303571 C156.08454,31.1303571 156.867006,31.0821433 157.673196,30.9857143 C158.479385,30.8892852 159.253948,30.7526795 159.996907,30.5758929 C160.739866,30.3991063 161.427488,30.206251 162.059794,29.9973214 C162.056434,29.9984316 162.593891,31.420753 163.672165,34.2642857 C162.913398,34.714288 161.680421,35.1160697 159.973196,35.4696429 C158.265971,35.8232161 156.369083,36 154.282474,36 C152.322327,36 150.583513,35.7910735 149.065979,35.3732143 C147.548446,34.9553551 146.268046,34.232148 145.224742,33.2035714 C144.181438,32.1749949 143.383164,30.7928658 142.829897,29.0571429 C142.27663,27.3214199 142,25.1357275 142,22.5 C142,19.8642725 142.27663,17.6785801 142.829897,15.9428571 C143.383164,14.2071342 144.181438,12.8250051 145.224742,11.7964286 C146.268046,10.767852 147.548446,10.0446449 149.065979,9.62678571 C150.583513,9.20892648 152.322327,9 154.282474,9 C156.495544,9 158.297588,9.29731846 159.68866,9.89196429 C161.079732,10.4866101 162.170443,11.2982091 162.960825,12.3267857 C163.751207,13.3553623 164.288658,14.5446361 164.573196,15.8946429 C164.857733,17.2446496 165,18.6910637 165,20.2339286 C165,20.8767889 164.976289,21.4955327 164.928866,22.0901786 C164.881443,22.6848244 164.826117,23.2071406 164.762887,23.6571429 L148.829239,24.7096606 C149.100101,23.2568446 149.665361,21.8986085 150.310623,21.1407806 Z" id="路径复制-3"></path>
                    </g>
                    <path d="M13.941636,20.3211991 C13.9044581,24.0699688 13.6813942,27.4289645 13.2724375,30.3982869 C13.7185721,30.9921514 14.2390546,31.7159129 14.8339007,32.5695931 C15.4287468,33.4232734 16.023584,34.3140567 16.6184301,35.24197 C17.2132762,36.1698833 17.7802304,37.0977827 18.3193097,38.0256959 C18.858389,38.9536092 19.2952226,39.7887186 19.6298235,40.5310493 L14.7223676,44.9850107 C14.4621225,44.4653793 14.0252889,43.6488278 13.4118538,42.5353319 C12.7984188,41.421836 12.1199326,40.2526828 11.376375,39.0278373 C10.6699952,41.1805961 9.8242111,43.2312536 8.83899723,45.1798715 C7.85378336,47.1284894 6.71058064,49.179147 5.40935477,51.3319058 L0,47.490364 C2.45374021,43.927177 4.34048941,40.3269275 5.66030422,36.6895075 C6.98011903,33.0520875 7.78872583,29.2662581 8.08614889,25.3319058 L3.68059191,26.4453961 C3.64341403,26.1113474 3.55976505,25.5453288 3.42964246,24.7473233 C3.29951987,23.9493179 3.15081058,23.0399766 2.98351011,22.0192719 C2.81620964,20.9985673 2.62102869,19.9129251 2.39796139,18.7623126 C2.1748941,17.6117002 1.97041882,16.5260579 1.78452941,15.5053533 C1.59864,14.4846487 1.43134204,13.5753073 1.28263051,12.7773019 C1.13391899,11.9792965 1.02238701,11.4318359 0.948031249,11.1349036 L5.85548713,9.91006424 C5.96702077,10.244113 6.11573007,10.8379686 6.30161948,11.6916488 C6.48750889,12.545329 6.69198417,13.5103444 6.91505146,14.5867238 C7.13811875,15.6631032 7.3611827,16.7951404 7.58424999,17.9828694 C7.80731728,19.1705984 8.01179257,20.2840776 8.19768198,21.3233405 L8.19768198,1.72591006 L13.941636,2.00428266 L13.941636,13.9743041 C14.6851937,12.6009924 15.3357968,11.1905854 15.8934651,9.74304069 L19.574057,11.9143469 L19.0721581,11.4132762 L21.8604853,8.96359743 L18.5144926,8.96359743 L18.5144926,2.78372591 L33.4599264,2.78372591 L33.4599264,23.6059957 L27.6602058,23.6059957 L27.6602058,21.3233405 C26.3961579,22.0656711 25.1135402,22.7801536 23.8123143,23.4668094 C22.5110884,24.1534652 21.3771801,24.7009259 20.4105551,25.1092077 L18.1798934,20.4325482 C19.4067635,19.9129167 20.9031508,19.2169922 22.6691002,18.3447537 C24.4350495,17.4725153 26.0987348,16.5724529 27.6602058,15.6445396 L27.6602058,8.96359743 L23.1988823,8.96359743 C23.8309063,9.63169499 24.5186868,10.3832935 25.2622445,11.2184154 C26.0058021,12.0535374 26.6192279,12.7865779 27.1025404,13.4175589 L23.6450147,16.75803 C23.236058,16.2755151 22.7062811,15.6259855 22.0556682,14.8094218 C21.4050552,13.9928582 20.7637464,13.2319807 20.1317224,12.5267666 C19.8342993,13.2690972 19.4904091,14.0392537 19.1000413,14.8372591 C18.7096736,15.6352645 18.300723,16.433258 17.8731774,17.2312634 C17.4456317,18.0292688 17.0273868,18.7901463 16.6184301,19.5139186 C16.2094734,20.237691 15.8377002,20.8593836 15.5030992,21.379015 L13.941636,20.3211991 Z M49.1860919,2.78372591 L49.1860919,25.0535332 L43.3863713,25.0535332 L43.3863713,20.7665953 C42.196679,21.4718094 40.960533,22.1677339 39.6778961,22.8543897 C38.3952592,23.5410455 37.2706451,24.0885062 36.3040202,24.496788 L34.240658,19.5974304 C35.7649512,19.0035659 37.3171045,18.3169204 38.8971645,17.5374732 C40.4772245,16.7580261 41.9736118,15.9414746 43.3863713,15.0877944 L43.3863713,8.96359743 L38.3673823,8.96359743 C38.9994063,9.63169499 39.7150698,10.4204094 40.5143943,11.3297645 C41.3137187,12.2391195 41.9736162,12.9907179 42.4941066,13.5845824 L39.0365808,16.869379 C38.7763357,16.5353302 38.4510341,16.1270545 38.0606663,15.6445396 C37.6702986,15.1620247 37.261348,14.6702381 36.8338023,14.1691649 C36.4062567,13.6680917 35.9880118,13.1763051 35.5790551,12.6937901 C35.1700984,12.2112752 34.7983252,11.8029995 34.4637242,11.4689507 L37.307818,8.96359743 L34.85409,8.96359743 L34.85409,2.78372591 L49.1860919,2.78372591 Z M35.6348216,26.9464668 L47.6803952,26.9464668 L47.6803952,50.385439 L19.7971231,50.385439 L19.7971231,26.9464668 L28.4409375,26.9464668 L29.3889687,24.2740899 L36.2482536,24.7751606 L35.6348216,26.9464668 Z M41.6018419,32.9593148 L25.8199099,32.9593148 L25.8199099,35.9100642 L41.6018419,35.9100642 L41.6018419,32.9593148 Z M41.6018419,44.5396146 L41.6018419,41.5331906 L25.8199099,41.5331906 L25.8199099,44.5396146 L41.6018419,44.5396146 Z M80.7156379,27.2248394 L99.7320294,27.2248394 L99.7320294,49.9957173 L63.818375,49.9957173 L63.818375,29.006424 L60.4166158,30.5653105 L56.9590901,24.6638116 C59.4871861,23.6987818 61.6062935,22.7059294 63.3164761,21.6852248 C65.0266587,20.6645202 66.3650424,19.4489721 67.3316673,18.0385439 L58.5763199,18.0385439 L58.5763199,12.7494647 L61.253114,12.7494647 L58.1301875,10.4111349 C59.542947,8.74089101 60.7697987,6.96860323 61.8107794,5.09421842 C62.8517601,3.2198336 63.6510726,1.52177777 64.2087408,0 L70.175761,1.05781585 C69.9898716,1.54033075 69.7946907,2.0413964 69.5902123,2.56102784 C69.385734,3.08065927 69.1719644,3.6188409 68.9488971,4.17558887 L82.3886342,4.17558887 L82.3886342,9.52034261 L75.3620496,9.52034261 C75.3620496,10.039974 75.3527553,10.5224817 75.3341664,10.9678801 C75.3155774,11.4132785 75.3062831,11.7844382 75.3062831,12.0813704 L75.3062831,12.7494647 L83.2251323,12.7494647 L83.2251323,18.0385439 L75.7524154,18.0385439 C77.165175,18.7808745 78.5965019,19.532473 80.0464393,20.2933619 C81.4963767,21.0542508 82.7604057,21.7501753 83.8385643,22.3811563 L80.7156379,27.2248394 Z M104.416419,3.89721627 L104.416419,24.6638116 L84.730829,24.6638116 L84.730829,3.89721627 L104.416419,3.89721627 Z M69.0604302,12.7494647 L69.0604302,12.359743 C69.097608,11.9885777 69.1161967,11.552465 69.1161967,11.0513919 L69.1161967,9.52034261 L66.1605699,9.52034261 C65.8259689,10.0770906 65.4820787,10.6245512 65.1288888,11.1627409 C64.7756989,11.7009306 64.41322,12.2298332 64.0414412,12.7494647 L69.0604302,12.7494647 Z M98.3378658,9.63169165 L90.9209154,9.63169165 L90.9209154,18.7066381 L98.3378658,18.7066381 L98.3378658,9.63169165 Z M72.629489,22.5481799 C71.4026189,24.2184238 69.58093,25.7772947 67.1643677,27.2248394 L79.8791397,27.2248394 C78.838159,26.4825088 77.6670733,25.7030733 76.3658474,24.8865096 C75.0646216,24.069946 73.8191812,23.2905105 72.629489,22.5481799 Z M92.7612114,32.6252677 L70.8449596,32.6252677 L70.8449596,35.8543897 L92.7612114,35.8543897 L92.7612114,32.6252677 Z M92.7612114,44.4282655 L92.7612114,41.1991435 L70.8449596,41.1991435 L70.8449596,44.4282655 L92.7612114,44.4282655 Z M155.408489,37.3019272 L155.408489,50.7194861 L148.437671,50.7194861 L148.437671,38.0256959 L132.767272,39.640257 L132.209607,32.9036403 L148.437671,31.2334047 L148.437671,1.00214133 L155.408489,1.16916488 L155.408489,30.509636 L161.598575,29.8415418 L162.156241,36.5781585 L155.408489,37.3019272 Z M130.53661,34.3511777 C130.202009,33.8315463 129.783764,33.2376907 129.281863,32.5695931 C128.779962,31.9014956 128.268773,31.251966 127.748283,30.620985 L127.748283,50.7194861 L121.223597,50.7194861 L121.223597,31.8458244 C120.331328,33.775884 119.364718,35.5852878 118.323737,37.2740899 C117.282756,38.9628921 116.223203,40.5496 115.145044,42.0342612 L110.683721,37.3019272 C112.431081,35.1120519 114.094766,32.7366295 115.674826,30.1755889 C117.254886,27.6145482 118.695508,24.7566182 119.996733,21.6017131 L114.420079,21.6017131 L114.420079,15.0321199 L121.223597,15.0321199 L121.223597,10.856531 C120.145439,11.0421137 119.104474,11.1998566 118.100671,11.3297645 C117.096868,11.4596723 116.148846,11.5802992 115.256577,11.6916488 L114.029713,5.73447537 C117.301367,5.32619353 120.582266,4.7972909 123.872508,4.14775161 C127.162751,3.49821231 130.090465,2.76517182 132.655739,1.94860814 L133.938369,8.18415418 C133.083278,8.44396989 132.135256,8.69450272 131.094276,8.93576017 C130.053295,9.17701762 128.937975,9.42755045 127.748283,9.68736617 L127.748283,15.0321199 L133.548004,15.0321199 L133.548004,21.6017131 L127.748283,21.6017131 L127.748283,25.6659529 L129.309746,24.2740899 C129.607169,24.5710222 129.978943,24.9514609 130.425077,25.4154176 C130.871212,25.8793742 131.335928,26.3804399 131.819241,26.9186296 C132.302553,27.4568193 132.776564,28.0042799 133.241288,28.5610278 L134.496035,30.0642398 L130.53661,34.3511777 Z M144.087881,17.6488223 C142.600765,16.2012776 141.095084,14.8187075 139.57079,13.5010707 C138.046497,12.1834338 136.522227,10.9864436 134.997934,9.91006424 L139.013125,5.01070664 C139.719505,5.53033807 140.48164,6.09635668 141.299553,6.70877944 C142.117467,7.32120221 142.916779,7.94289478 143.697515,8.5738758 C144.47825,9.20485683 145.212502,9.83582839 145.900293,10.4668094 C146.588084,11.0977904 147.192216,11.691646 147.712706,12.248394 L144.087881,17.6488223 Z M137.451662,17.9271949 C138.046508,18.3725932 138.734288,18.8922169 139.515024,19.4860814 C140.295759,20.0799459 141.085778,20.7016384 141.885102,21.3511777 C142.684426,22.000717 143.474445,22.6688046 144.25518,23.3554604 C145.035916,24.0421162 145.742285,24.6823668 146.374309,25.2762313 L142.414884,30.8993576 C140.964947,29.4889294 139.449971,28.1063594 137.869911,26.751606 C136.289851,25.3968526 134.793464,24.1813045 133.380704,23.1049251 L137.451662,17.9271949 Z M214.598241,52 C211.62401,50.7380379 209.003009,49.4482578 206.735158,48.130621 C204.467307,46.8129841 202.441143,45.4118561 200.656605,43.9271949 C198.834889,45.2262734 196.771547,46.4882166 194.466518,47.7130621 C192.16149,48.9379076 189.559077,50.1070608 186.659202,51.2205567 L182.699778,44.8179872 C185.376585,44.0014235 187.783817,43.1106401 189.921545,42.1456103 C192.059273,41.1805805 194.001788,40.1598912 195.749149,39.0835118 C194.485101,37.5246175 193.341898,35.8729566 192.319506,34.1284797 C191.297115,32.3840027 190.302621,30.491088 189.335996,28.4496788 L195.41455,25.9443255 C196.976021,29.7302116 198.760532,32.8108375 200.768138,35.1862955 C203.556479,32.4396722 205.545466,29.3590463 206.735158,25.9443255 L187.941833,25.9443255 L187.941833,19.1520343 L197.031779,19.1520343 L197.031779,13.9186296 L186.993802,13.9186296 L186.993802,7.18201285 L197.031779,7.18201285 L197.031779,0.835117773 L203.891064,1.16916488 L203.891064,7.18201285 L215.713572,7.18201285 L215.713572,13.9186296 L203.891064,13.9186296 L203.891064,19.1520343 L213.984809,19.1520343 L213.984809,25.9443255 C213.129718,28.3197835 212.070164,30.6488109 210.806116,32.9314775 C209.542068,35.2141442 207.831911,37.4503816 205.675594,39.640257 C207.348598,40.7908694 209.19817,41.7930007 211.224365,42.6466809 C213.250559,43.5003612 215.509082,44.2983546 218,45.0406852 L214.598241,52 Z M187.105335,27.7259101 C186.361777,28.0599588 185.571759,28.4125606 184.735256,28.7837259 C183.898754,29.1548912 183.015793,29.526051 182.086346,29.8972163 L182.086346,42.5910064 C182.086346,44.1870173 181.984108,45.4767974 181.77963,46.4603854 C181.575151,47.4439735 181.259144,48.21413 180.831598,48.7708779 C180.404053,49.3276259 179.864982,49.7173436 179.214369,49.9400428 C178.563756,50.162742 177.810915,50.3297639 176.955824,50.4411135 L171.992601,50.9978587 L169.985006,44.1498929 L173.330998,43.8158458 C174.111734,43.7416128 174.622922,43.416848 174.864578,42.8415418 C175.106234,42.2662355 175.227061,41.0878033 175.227061,39.3062099 L175.227061,32.5139186 C174.18608,32.9222005 173.182292,33.2840812 172.215667,33.5995717 C171.249042,33.9150622 170.338198,34.221269 169.483107,34.5182013 L167.419745,26.8351178 C168.386369,26.5753021 169.548161,26.2412583 170.905154,25.8329764 C172.262146,25.4246946 173.702768,24.9607449 175.227061,24.4411135 L175.227061,16.6466809 L169.929239,16.6466809 L169.929239,9.24197002 L175.227061,9.24197002 L175.227061,1.16916488 L182.086346,1.39186296 L182.086346,9.24197002 L185.655404,9.24197002 L185.655404,16.6466809 L182.086346,16.6466809 L182.086346,22.0471092 C183.499105,21.5274778 184.670191,21.0449701 185.599638,20.5995717 L187.105335,27.7259101 Z" id="熠智科技"></path>
                </g>
            </g>
        </g>
    </g>
</svg>